<svg xmlns="http://www.w3.org/2000/svg" width="14" height="8" viewBox="0 0 14 8">
  <path id="arrow-down-01-solid-rounded" d="M18.593,8.195a1,1,0,0,1,.212,1.4c-.254.345-.509.674-.732.96-.445.571-1.059,1.335-1.725,2.1a23.822,23.822,0,0,1-2.081,2.156,7.383,7.383,0,0,1-1.039.787A2.445,2.445,0,0,1,12,16a2.446,2.446,0,0,1-1.228-.4,7.383,7.383,0,0,1-1.039-.787,23.815,23.815,0,0,1-2.081-2.156c-.666-.767-1.28-1.532-1.725-2.1-.223-.286-.478-.614-.732-.96A1,1,0,0,1,6,8H18A1,1,0,0,1,18.593,8.195Z" transform="translate(-5 -8)" fill="#a1a1a0"/>
</svg>
