<svg xmlns="http://www.w3.org/2000/svg" width="20.5" height="21.5" viewBox="0 0 20.5 21.5">
  <g id="cart" transform="translate(-1.75 -1.25)">
    <path id="Path_1" data-name="Path 1" d="M4.535,6.75H19.465a9.7,9.7,0,0,1,1.3.052,1.7,1.7,0,0,1,1.128.578A1.759,1.759,0,0,1,22.249,8.6a10.522,10.522,0,0,1-.17,1.32l-1.22,7.275h0A25.878,25.878,0,0,1,20.3,20a3.724,3.724,0,0,1-1.09,1.864,3.58,3.58,0,0,1-1.989.794,23.867,23.867,0,0,1-2.788.094H9.571a23.865,23.865,0,0,1-2.788-.094,3.58,3.58,0,0,1-1.989-.794A3.724,3.724,0,0,1,3.7,20a25.857,25.857,0,0,1-.563-2.806L1.93,9.964l-.008-.048a10.513,10.513,0,0,1-.17-1.32,1.758,1.758,0,0,1,.356-1.215A1.7,1.7,0,0,1,3.236,6.8,9.7,9.7,0,0,1,4.535,6.75Z" fill="#fff"/>
    <path id="Path_2" data-name="Path 2" d="M12,3.25a4,4,0,0,0-4,4v.5a1,1,0,0,1-2,0v-.5a6,6,0,0,1,12,0v.5a1,1,0,0,1-2,0v-.5A4,4,0,0,0,12,3.25Z" fill="#fff" fill-rule="evenodd"/>
  </g>
</svg>
