<svg xmlns="http://www.w3.org/2000/svg" width="22" height="21.5" viewBox="0 0 22 21.5">
  <g id="champion-solid-rounded" transform="translate(-1 -1.25)">
    <path id="Path_1" data-name="Path 1" d="M7.422,19.851A5.188,5.188,0,0,1,12,16.25a5.188,5.188,0,0,1,4.578,3.6,2.341,2.341,0,0,1-.048,1.872,1.69,1.69,0,0,1-1.489,1.028H8.959A1.689,1.689,0,0,1,7.47,21.722,2.341,2.341,0,0,1,7.422,19.851Z" fill="#fff"/>
    <path id="Path_2" data-name="Path 2" d="M21,6.054A10.458,10.458,0,0,0,19.7,6H18.5a1,1,0,0,1,0-2h1.264a11.486,11.486,0,0,1,1.466.057,2.044,2.044,0,0,1,1.356.682,1.971,1.971,0,0,1,.4,1.472,11.442,11.442,0,0,1-.276,1.467l-.391,1.7a7.418,7.418,0,0,1-6.175,5.612,1,1,0,0,1-.3-1.978,5.418,5.418,0,0,0,4.522-4.082l.391-1.7A9.619,9.619,0,0,0,21,6.054Z" fill="#fff"/>
    <path id="Path_3" data-name="Path 3" d="M3,6.054A10.457,10.457,0,0,1,4.3,6H5.5a1,1,0,0,0,0-2H4.236a11.488,11.488,0,0,0-1.466.057,2.044,2.044,0,0,0-1.356.682,1.971,1.971,0,0,0-.4,1.472,10.444,10.444,0,0,0,.262,1.4l.405,1.762a7.418,7.418,0,0,0,6.175,5.612,1,1,0,1,0,.3-1.978A5.418,5.418,0,0,1,3.626,8.929l-.391-1.7A9.614,9.614,0,0,1,3,6.054Z" fill="#fff"/>
    <path id="Path_4" data-name="Path 4" d="M9.127,1.25h5.747a14.606,14.606,0,0,1,2.165.095,2.5,2.5,0,0,1,1.627.857,2.679,2.679,0,0,1,.582,1.705,15.048,15.048,0,0,1-.166,2.118,22.725,22.725,0,0,1-2.417,8.22c-1.151,2.032-2.738,3.5-4.664,3.5s-3.513-1.472-4.663-3.5a22.724,22.724,0,0,1-2.418-8.22,15.048,15.048,0,0,1-.166-2.118A2.679,2.679,0,0,1,5.335,2.2a2.5,2.5,0,0,1,1.627-.857A14.606,14.606,0,0,1,9.127,1.25Z" fill="#fff"/>
  </g>
</svg>
