<svg xmlns="http://www.w3.org/2000/svg" width="21.501" height="21.5" viewBox="0 0 21.501 21.5">
  <g id="dress-05-bulk-rounded" transform="translate(-1.25 -1.25)">
    <path id="Path_1" data-name="Path 1" d="M18.149,9.348c-.1-.071-.2-.153-.3-.243a9.689,9.689,0,0,0,.218,3.577,28.049,28.049,0,0,0,.745,3.071c.222.714.545,1.777.714,2.6h0a8.194,8.194,0,0,1,.222,1.514,1.946,1.946,0,0,1-.541,1.423,3.36,3.36,0,0,1-1.3.77,9.934,9.934,0,0,1-1.74.424,25.472,25.472,0,0,1-4.311.264,27.594,27.594,0,0,1-4.232-.37,10.842,10.842,0,0,1-1.64-.407,3.041,3.041,0,0,1-1.193-.681,1.946,1.946,0,0,1-.541-1.423,8.191,8.191,0,0,1,.222-1.514,23.291,23.291,0,0,1,.611-2.267s.667-2.375.848-3.4A9.689,9.689,0,0,0,6.15,9.105c-.1.09-.2.171-.3.242a1.8,1.8,0,0,1-1.1.4A2.465,2.465,0,0,1,3.473,9.3a5.67,5.67,0,0,1-1.061-.92,5.709,5.709,0,0,1-.818-1.14A2.492,2.492,0,0,1,1.254,5.93,1.722,1.722,0,0,1,1.749,4.89l3.1-2.669a3.317,3.317,0,0,1,1.432-.668L8,1.257a1.276,1.276,0,0,1,.583.073,1.7,1.7,0,0,1,.6.423,3.626,3.626,0,0,1,.381.486c.132.215.412.667.475.755a17.035,17.035,0,0,0,1.341,1.721c.331.338.5.376.613.376s.282-.039.613-.376a17.033,17.033,0,0,0,1.341-1.721c.132-.181.372-.579.475-.755a3.631,3.631,0,0,1,.381-.486,1.7,1.7,0,0,1,.6-.423A1.276,1.276,0,0,1,16,1.257l1.722.288a3.263,3.263,0,0,1,1.435.675l3.1,2.669a1.723,1.723,0,0,1,.494,1.041,2.493,2.493,0,0,1-.34,1.306,5.706,5.706,0,0,1-.819,1.14,5.669,5.669,0,0,1-1.061.92,2.465,2.465,0,0,1-1.275.453A1.8,1.8,0,0,1,18.149,9.348Z" fill="#3affe3" opacity="0.4"/>
    <path id="Path_2" data-name="Path 2" d="M12,5.09c-.115,0-.282-.039-.613-.376a17.032,17.032,0,0,1-1.341-1.721c-.064-.088-.343-.54-.475-.755a3.626,3.626,0,0,0-.381-.486,1.7,1.7,0,0,0-.6-.423A1.276,1.276,0,0,0,8,1.257l-1.724.3a3.317,3.317,0,0,0-1.432.668L3.414,3.454C5.823,6.2,6.829,8.928,5.932,12.682c-.181,1.028-.848,3.4-.848,3.4a23.291,23.291,0,0,0-.611,2.267,8.193,8.193,0,0,0-.222,1.514,1.946,1.946,0,0,0,.541,1.423,3.041,3.041,0,0,0,1.193.681,10.842,10.842,0,0,0,1.64.407,29.434,29.434,0,0,0,4.365.37,29.757,29.757,0,0,0,4.389-.37,10.843,10.843,0,0,0,1.64-.407,3.042,3.042,0,0,0,1.193-.681,1.946,1.946,0,0,0,.541-1.423,8.186,8.186,0,0,0-.222-1.514,23.3,23.3,0,0,0-.611-2.267s-.667-2.375-.848-3.4c-.9-3.753.109-6.482,2.518-9.227L19.155,2.22a3.317,3.317,0,0,0-1.432-.668L16,1.257a1.276,1.276,0,0,0-.583.073,1.7,1.7,0,0,0-.6.423,3.63,3.63,0,0,0-.381.486c-.132.215-.412.667-.475.755a17.032,17.032,0,0,1-1.341,1.721C12.283,5.052,12.116,5.09,12,5.09Z" fill="#3affe3"/>
  </g>
</svg>
