<svg xmlns="http://www.w3.org/2000/svg" width="21.5" height="20.419" viewBox="0 0 21.5 20.419">
  <g id="comment-01-stroke-rounded" transform="translate(-1.25 -1.75)">
    <path id="Path_1" data-name="Path 1" d="M8,13.5h8m-8-5h4" fill="none" stroke="#757575" stroke-linecap="round" stroke-linejoin="round" stroke-width="1.5"/>
    <path id="Path_2" data-name="Path 2" d="M6.1,19a4.648,4.648,0,0,1-2.927-1.172C2,16.657,2,14.771,2,11v-.5C2,6.729,2,4.843,3.172,3.672S6.229,2.5,10,2.5h4c3.771,0,5.657,0,6.828,1.172S22,6.729,22,10.5V11c0,3.771,0,5.657-1.172,6.828S17.771,19,14,19a7.046,7.046,0,0,0-1.445.155,16.376,16.376,0,0,0-3.4,1.424c-1.563.762-2.344,1.143-2.834.786-.938-.7-.021-2.863.184-3.865" fill="none" stroke="#757575" stroke-linecap="round" stroke-width="1.5"/>
  </g>
</svg>
