<svg xmlns="http://www.w3.org/2000/svg" width="20.5" height="20.5" viewBox="0 0 20.5 20.5">
  <path id="facebook-01-solid-rounded" d="M15.922,6.752a18.465,18.465,0,0,0-2.283.084A3.218,3.218,0,0,0,11.7,7.7a3.219,3.219,0,0,0-.867,1.938,18.481,18.481,0,0,0-.084,2.284v.829H10a1.25,1.25,0,0,0,0,2.5h.75v6c0,.474,0,.711-.149.858s-.384.144-.855.138a26.172,26.172,0,0,1-3.059-.172,5.455,5.455,0,0,1-3.327-1.431,5.458,5.458,0,0,1-1.43-3.328A43.4,43.4,0,0,1,1.75,12.06v-.114A43.4,43.4,0,0,1,1.931,6.69a5.459,5.459,0,0,1,1.43-3.328A5.455,5.455,0,0,1,6.688,1.931a43.357,43.357,0,0,1,5.255-.181h.114a43.356,43.356,0,0,1,5.255.181,5.455,5.455,0,0,1,3.327,1.431,5.459,5.459,0,0,1,1.43,3.328,43.4,43.4,0,0,1,.181,5.256v.114a43.4,43.4,0,0,1-.181,5.257,5.458,5.458,0,0,1-1.43,3.328,5.455,5.455,0,0,1-3.327,1.431,26.172,26.172,0,0,1-3.059.172c-.471.006-.706.009-.855-.138s-.149-.384-.149-.858v-6H15a1.25,1.25,0,0,0,0-2.5H13.25V12a17.427,17.427,0,0,1,.062-2.029c.054-.4.133-.478.156-.5h0c.023-.024.1-.1.5-.156A17.406,17.406,0,0,1,16,9.252h1a1.25,1.25,0,0,0,0-2.5Z" transform="translate(-1.75 -1.75)" fill="#919192"/>
</svg>
