<svg xmlns="http://www.w3.org/2000/svg" width="20.5" height="20.5" viewBox="0 0 20.5 20.5">
  <path id="instagram-solid-rounded" d="M12.057,1.75h0a43.371,43.371,0,0,1,5.255.181,5.456,5.456,0,0,1,3.327,1.43,5.456,5.456,0,0,1,1.43,3.327,43.375,43.375,0,0,1,.181,5.255h0v.114h0a43.375,43.375,0,0,1-.181,5.255,5.456,5.456,0,0,1-1.43,3.327,5.456,5.456,0,0,1-3.327,1.43,43.375,43.375,0,0,1-5.255.181h-.114a43.375,43.375,0,0,1-5.255-.181,5.456,5.456,0,0,1-3.327-1.43,5.456,5.456,0,0,1-1.43-3.327,43.371,43.371,0,0,1-.181-5.255v-.114a43.371,43.371,0,0,1,.181-5.255,5.456,5.456,0,0,1,1.43-3.327,5.456,5.456,0,0,1,3.327-1.43,43.37,43.37,0,0,1,5.255-.181h.114ZM16.5,12A4.5,4.5,0,1,1,12,7.5,4.5,4.5,0,0,1,16.5,12Zm1.012-4.5a1,1,0,0,0,0-2H17.5a1,1,0,0,0,0,2Z" transform="translate(-1.75 -1.75)" fill="#919192" fill-rule="evenodd"/>
</svg>
