<svg xmlns="http://www.w3.org/2000/svg" width="22" height="19.5" viewBox="0 0 22 19.5">
  <g id="necklace-bulk-rounded" transform="translate(-1 -2.25)">
    <path id="Path_1" data-name="Path 1" d="M2,2.25a1,1,0,0,1,1,1C3,5.537,4.978,7.767,8.3,8.795a1,1,0,1,1-.592,1.91C3.958,9.545,1,6.778,1,3.25A1,1,0,0,1,2,2.25Zm20,0a1,1,0,0,1,1,1c0,3.528-2.958,6.295-6.7,7.455a1,1,0,0,1-.592-1.91C19.022,7.767,21,5.537,21,3.25A1,1,0,0,1,22,2.25Z" fill="#f6ff00" fill-rule="evenodd" opacity="0.4"/>
    <path id="Path_2" data-name="Path 2" d="M11.547,11.684,11.883,9,12,9l.118,0,.335,2.681a3.419,3.419,0,0,0-.386.251l-.067.05-.067-.05A3.425,3.425,0,0,0,11.547,11.684Zm-1.963-.42L9.9,8.752a1.926,1.926,0,0,1,.744-1.4A2.291,2.291,0,0,1,12,7a2.291,2.291,0,0,1,1.358.35,1.926,1.926,0,0,1,.744,1.4l.314,2.512a3.94,3.94,0,0,1,1.707.594,3.8,3.8,0,0,1,1.583,3.84,7.817,7.817,0,0,1-3.43,5.047A3.768,3.768,0,0,1,12,21.75a3.768,3.768,0,0,1-2.276-1.005A7.817,7.817,0,0,1,6.294,15.7a3.8,3.8,0,0,1,1.583-3.84A3.939,3.939,0,0,1,9.584,11.264Z" fill="#f6ff00" fill-rule="evenodd"/>
  </g>
</svg>
