<svg xmlns="http://www.w3.org/2000/svg" width="18" height="16" viewBox="0 0 18 16">
  <g id="menu-01-solid-rounded" transform="translate(-3 -4)">
    <path id="Path_1" data-name="Path 1" d="M3,5A1,1,0,0,1,4,4H20a1,1,0,0,1,0,2H4A1,1,0,0,1,3,5Z" fill="#7d7d7b" fill-rule="evenodd"/>
    <path id="Path_2" data-name="Path 2" d="M3,12a1,1,0,0,1,1-1H20a1,1,0,0,1,0,2H4A1,1,0,0,1,3,12Z" fill="#7d7d7b" fill-rule="evenodd"/>
    <path id="Path_3" data-name="Path 3" d="M3,19a1,1,0,0,1,1-1H20a1,1,0,0,1,0,2H4A1,1,0,0,1,3,19Z" fill="#7d7d7b" fill-rule="evenodd"/>
  </g>
</svg>
