<svg xmlns="http://www.w3.org/2000/svg" width="19.5" height="22" viewBox="0 0 19.5 22">
  <g id="notification" transform="translate(-2.25 -1)">
    <path id="Path_1" data-name="Path 1" d="M4.409,11.452a7.6,7.6,0,0,1,15.181,0c.009.172.016.338.022.5a8.586,8.586,0,0,0,.14,1.465,2.044,2.044,0,0,0,.775,1.3,3.055,3.055,0,0,1,1.222,2.444,2.572,2.572,0,0,1-2.55,2.6H4.8a2.572,2.572,0,0,1-2.55-2.6,3.055,3.055,0,0,1,1.222-2.444,2.044,2.044,0,0,0,.775-1.3,8.579,8.579,0,0,0,.14-1.465h0C4.394,11.789,4.4,11.624,4.409,11.452Z" fill="#fff"/>
    <path id="Path_2" data-name="Path 2" d="M10.529,1.374A2.688,2.688,0,0,1,12,1a2.688,2.688,0,0,1,1.471.374,1.722,1.722,0,0,1,.779,1.5,2.94,2.94,0,0,1-.587,1.7A2.12,2.12,0,0,1,12,5.5a2.12,2.12,0,0,1-1.663-.929,2.94,2.94,0,0,1-.587-1.7A1.722,1.722,0,0,1,10.529,1.374Z" fill="#fff" fill-rule="evenodd"/>
    <path id="Path_3" data-name="Path 3" d="M9,18a1,1,0,0,1,1,1,2,2,0,0,0,4,0,1,1,0,0,1,2,0,4,4,0,0,1-8,0A1,1,0,0,1,9,18Z" fill="#fff" fill-rule="evenodd"/>
  </g>
</svg>
