<svg xmlns="http://www.w3.org/2000/svg" width="21.52" height="21.517" viewBox="0 0 21.52 21.517">
  <path id="star-stroke-rounded" d="M13.728,3.444l1.76,3.549a2.174,2.174,0,0,0,1.42,1.059l3.19.534c2.04.343,2.52,1.835,1.05,3.307l-2.48,2.5a2.2,2.2,0,0,0-.52,1.825l.71,3.095c.56,2.45-.73,3.4-2.88,2.117l-2.99-1.784a2.146,2.146,0,0,0-1.98,0L8.018,21.43c-2.14,1.28-3.44.323-2.88-2.117l.71-3.095a2.2,2.2,0,0,0-.52-1.825l-2.48-2.5c-1.46-1.472-.99-2.964,1.05-3.307l3.19-.534A2.179,2.179,0,0,0,8.5,6.993l1.76-3.549C11.218,1.519,12.778,1.519,13.728,3.444Z" transform="translate(-1.24 -1.25)" fill="none" stroke="#757575" stroke-linecap="round" stroke-linejoin="round" stroke-width="1.5"/>
</svg>
