<svg xmlns="http://www.w3.org/2000/svg" width="21.503" height="21.501" viewBox="0 0 21.503 21.501">
  <path id="star-solid-rounded" d="M12,1.25a2.855,2.855,0,0,1,2.4,1.862l1.762,3.553a1.246,1.246,0,0,0,.371.406,1.27,1.27,0,0,0,.5.24l3.19.534a2.843,2.843,0,0,1,2.431,1.742,2.855,2.855,0,0,1-.974,2.834h0l-2.478,2.5a1.272,1.272,0,0,0-.277.528,1.318,1.318,0,0,0-.043.6v0l.709,3.091c.294,1.286.2,2.562-.711,3.229s-2.154.372-3.285-.3L12.6,20.289a1.229,1.229,0,0,0-.6-.136,1.272,1.272,0,0,0-.612.138h0L8.4,22.073c-1.129.675-2.371.967-3.282.3s-1.009-1.94-.714-3.226l.709-3.09v0a1.318,1.318,0,0,0-.044-.6,1.272,1.272,0,0,0-.277-.528l-2.48-2.5a2.865,2.865,0,0,1-.97-2.831A2.835,2.835,0,0,1,3.774,7.846l3.187-.534h0a1.457,1.457,0,0,0,.861-.647l0-.005,1.76-3.549h0A2.87,2.87,0,0,1,12,1.25Z" transform="translate(-1.248 -1.25)" fill="#fff"/>
</svg>
