<svg xmlns="http://www.w3.org/2000/svg" width="21.5" height="20.5" viewBox="0 0 21.5 20.5">
  <g id="store-03-solid-rounded" transform="translate(-1.25 -1.75)">
    <path id="Path_1" data-name="Path 1" d="M3,9.75a1,1,0,0,1,1,1v4.5a26.694,26.694,0,0,0,.1,3.159,2.015,2.015,0,0,0,.485,1.256,2.015,2.015,0,0,0,1.256.485A26.691,26.691,0,0,0,9,20.25h6a26.692,26.692,0,0,0,3.159-.1,2.015,2.015,0,0,0,1.256-.485,2.015,2.015,0,0,0,.485-1.256A26.693,26.693,0,0,0,20,15.25v-4.5a1,1,0,0,1,2,0v4.571a27.472,27.472,0,0,1-.119,3.355,3.964,3.964,0,0,1-1.053,2.4,3.963,3.963,0,0,1-2.4,1.053,27.449,27.449,0,0,1-3.355.119H8.929a27.448,27.448,0,0,1-3.354-.119,3.963,3.963,0,0,1-2.4-1.053,3.963,3.963,0,0,1-1.053-2.4A27.462,27.462,0,0,1,2,15.321V10.75A1,1,0,0,1,3,9.75Z" fill="#fff" fill-rule="evenodd"/>
    <path id="Path_2" data-name="Path 2" d="M8.252,16.336a1,1,0,0,1,1.412-.084A3.59,3.59,0,0,0,12,17a3.59,3.59,0,0,0,2.336-.748,1,1,0,0,1,1.328,1.5A5.564,5.564,0,0,1,12,19a5.564,5.564,0,0,1-3.664-1.252A1,1,0,0,1,8.252,16.336Z" fill="#fff" fill-rule="evenodd"/>
    <path id="Path_3" data-name="Path 3" d="M3.191,4.459A2.717,2.717,0,0,1,5.915,1.75h12.17a2.717,2.717,0,0,1,2.724,2.709,3.146,3.146,0,0,0,.42,1.57l.986,1.713a3.1,3.1,0,0,1,.52,1.424,2.733,2.733,0,0,1-.009.658,2.27,2.27,0,0,1-.13.461l-.006.017a3.783,3.783,0,0,1-6.752.662,5.016,5.016,0,0,1-7.675,0A3.783,3.783,0,0,1,1.411,10.3L1.4,10.285a2.275,2.275,0,0,1-.13-.461,2.733,2.733,0,0,1-.009-.658,3.1,3.1,0,0,1,.52-1.424l.986-1.713A3.147,3.147,0,0,0,3.191,4.459Z" fill="#fff"/>
  </g>
</svg>
