<svg xmlns="http://www.w3.org/2000/svg" width="20.5" height="20.5" viewBox="0 0 20.5 20.5">
  <path id="thumbs-up-rectangle-solid-rounded" d="M17.312,1.931a43.371,43.371,0,0,0-5.255-.181h-.114a43.371,43.371,0,0,0-5.255.181,5.456,5.456,0,0,0-3.327,1.43,5.456,5.456,0,0,0-1.43,3.327,43.371,43.371,0,0,0-.181,5.255v.114a43.371,43.371,0,0,0,.181,5.255,5.456,5.456,0,0,0,1.43,3.327,5.456,5.456,0,0,0,3.327,1.43,43.375,43.375,0,0,0,5.255.181h.114a43.375,43.375,0,0,0,5.255-.181,5.456,5.456,0,0,0,3.327-1.43,5.456,5.456,0,0,0,1.43-3.327,43.375,43.375,0,0,0,.181-5.255h0v-.114h0a43.375,43.375,0,0,0-.181-5.255,5.456,5.456,0,0,0-1.43-3.327A5.456,5.456,0,0,0,17.312,1.931ZM12.475,9.843l.177-.557h0c.047-.146.07-.219.088-.29a2.4,2.4,0,0,0-.3-1.87c-.039-.063-.084-.127-.174-.254h0a1.778,1.778,0,0,0-.113-.151.7.7,0,0,0-.962-.059,1.8,1.8,0,0,0-.133.136h0L8.334,9.73a5.382,5.382,0,0,0-1.162,1.494A5.057,5.057,0,0,0,7,13.068v.63c0,1.792,0,2.689.592,3.245s1.545.557,3.451.557h.341a6.352,6.352,0,0,0,2.995-.353q.092-.051.18-.109c.6-.4.928-1.078,1.577-2.436.708-1.479,1.062-2.219.75-2.768a1.264,1.264,0,0,0-.123-.179c-.4-.492-1.261-.492-2.975-.492h-.269a1.975,1.975,0,0,1-.927-.1.638.638,0,0,1-.28-.354C12.257,10.527,12.33,10.3,12.475,9.843Z" transform="translate(-1.75 -1.75)" fill="#fff" fill-rule="evenodd"/>
</svg>
