<svg xmlns="http://www.w3.org/2000/svg" width="20.5" height="21.5" viewBox="0 0 20.5 21.5">
  <path id="new-releases-solid-rounded" d="M12.763,1.4a2.062,2.062,0,0,0-1.527,0,2.145,2.145,0,0,0-.754.547c-.2.209-.438.507-.694.826a1.265,1.265,0,0,1-1.4.455c-.388-.105-.752-.2-1.031-.255a2.137,2.137,0,0,0-.916,0,2.08,2.08,0,0,0-1.273.939,2.182,2.182,0,0,0-.276.869c-.037.281-.057.656-.077,1.058a1.134,1.134,0,0,1-.864,1.2h0c-.371.143-.719.277-.972.4a2.156,2.156,0,0,0-.735.531,2.111,2.111,0,0,0-.493,1.54,2.185,2.185,0,0,0,.284.858c.133.247.335.56.551.894h0a1.317,1.317,0,0,1,0,1.486c-.216.334-.418.647-.551.894a2.185,2.185,0,0,0-.284.858,2.111,2.111,0,0,0,.493,1.54,2.157,2.157,0,0,0,.735.531c.253.122.6.256.972.4a1.343,1.343,0,0,1,.864,1.2c.021.4.04.778.077,1.058a2.182,2.182,0,0,0,.276.869,2.08,2.08,0,0,0,1.273.938,2.137,2.137,0,0,0,.916,0c.279-.051.642-.15,1.031-.255h0a1.351,1.351,0,0,1,1.4.455c.256.319.5.617.694.826a2.146,2.146,0,0,0,.754.547,2.062,2.062,0,0,0,1.527,0,2.146,2.146,0,0,0,.754-.547c.2-.209.419-.484.675-.8a1.252,1.252,0,0,1,1.443-.471h0c.388.105.723.2,1,.247a2.137,2.137,0,0,0,.916,0,2.08,2.08,0,0,0,1.273-.938,2.181,2.181,0,0,0,.276-.869c.037-.281.057-.656.077-1.058h0a1.076,1.076,0,0,1,.891-1.213c.371-.143.692-.267.945-.389a2.157,2.157,0,0,0,.735-.531,2.111,2.111,0,0,0,.493-1.54,2.185,2.185,0,0,0-.284-.858c-.133-.247-.335-.559-.551-.894h0a1.282,1.282,0,0,1,0-1.486h0c.216-.334.418-.647.551-.894a2.185,2.185,0,0,0,.284-.858,2.111,2.111,0,0,0-.493-1.54,2.156,2.156,0,0,0-.735-.531c-.253-.122-.6-.256-.972-.4a1.418,1.418,0,0,1-.863-1.2h0c-.021-.4-.04-.777-.077-1.058a2.181,2.181,0,0,0-.276-.869,2.08,2.08,0,0,0-1.273-.939,2.137,2.137,0,0,0-.916,0c-.278.051-.642.15-1.031.255a1.391,1.391,0,0,1-1.4-.455c-.256-.319-.5-.617-.694-.826A2.146,2.146,0,0,0,12.763,1.4Zm3.556,9.551a1,1,0,0,0-.639-1.9A7.077,7.077,0,0,0,13.5,10.366a16.64,16.64,0,0,0-1.8,1.788c-.35.4-.664.787-.926,1.125a3.523,3.523,0,0,0-.687-.581A2.146,2.146,0,0,0,9,12.334a1,1,0,0,0-.1,2c.225.054.591.425.964,1.136a1,1,0,0,0,1.717.09c.34-.509,1.14-1.536,1.619-2.083A14.652,14.652,0,0,1,14.778,11.9,5.148,5.148,0,0,1,16.32,10.948Z" transform="translate(-1.75 -1.25)" fill="#1b68f8" fill-rule="evenodd"/>
</svg>
