<svg xmlns="http://www.w3.org/2000/svg" width="21.5" height="21.5" viewBox="0 0 21.5 21.5">
  <path id="whatsapp-solid-rounded" d="M12,1.25A10.756,10.756,0,0,0,2.093,16.179c.142.337.238.565.3.74a1.154,1.154,0,0,1,.076.26,3.3,3.3,0,0,1-.179.828l-1.016,3.8a.75.75,0,0,0,.918.918l3.8-1.016a3.3,3.3,0,0,1,.828-.179,1.148,1.148,0,0,1,.26.076c.175.064.4.16.74.3A10.751,10.751,0,1,0,12,1.25Zm-3.027,5H8.88a3.113,3.113,0,0,0-1.357.2A2.37,2.37,0,0,0,6.295,7.984a2.588,2.588,0,0,0,.069,1.2l.012.053a11.108,11.108,0,0,0,3.013,5.374,11.107,11.107,0,0,0,5.374,3.013l.052.012a2.589,2.589,0,0,0,1.2.069,2.371,2.371,0,0,0,1.537-1.228,3.115,3.115,0,0,0,.2-1.357v-.093a2.443,2.443,0,0,0-.15-.934,1.349,1.349,0,0,0-1.074-.834H16.52c-.683-.107-1.2-.189-1.57-.242-.184-.027-.337-.047-.456-.061a2.159,2.159,0,0,0-.346-.019,2.307,2.307,0,0,0-1.181.434c-.192.131-.4.308-.564.446-.064.054-.122.1-.169.141l-.077.062h0c-.3.238-.443.357-.625.353s-.316-.121-.583-.354q-.255-.223-.5-.467t-.467-.5c-.234-.267-.351-.4-.354-.583s.115-.33.353-.625l.062-.077c.038-.047.087-.1.141-.169h0c.139-.164.315-.373.446-.564a2.308,2.308,0,0,0,.434-1.181,2.159,2.159,0,0,0-.019-.346c-.014-.119-.034-.272-.061-.456-.053-.367-.135-.887-.242-1.57V7.474A1.349,1.349,0,0,0,9.907,6.4,2.444,2.444,0,0,0,8.973,6.25Z" transform="translate(-1.25 -1.25)" fill="#919192" fill-rule="evenodd"/>
</svg>
