<svg xmlns="http://www.w3.org/2000/svg" width="21.5" height="18.5" viewBox="0 0 21.5 18.5">
  <path id="youtube-solid-rounded" d="M6.7,3.272a27.213,27.213,0,0,1,10.606,0l.127.026c1.895.386,3.157.643,4.245,2.041,1.076,1.384,1.076,2.988,1.075,5.473v2.375c0,2.485,0,4.09-1.075,5.474s-2.35,1.656-4.245,2.041l-.127.026a26.638,26.638,0,0,1-5.3.522,26.64,26.64,0,0,1-5.3-.522L6.569,20.7c-1.895-.386-3.157-.642-4.245-2.041S1.249,15.673,1.25,13.188V10.812c0-2.485,0-4.09,1.075-5.473C3.412,3.94,4.675,3.683,6.569,3.3Zm4.6,4.981a21.353,21.353,0,0,1,1.918,1l.305.169a14.537,14.537,0,0,1,1.477.893,2.187,2.187,0,0,1,.95,1.221,1.977,1.977,0,0,1,0,.93,2.187,2.187,0,0,1-.95,1.221,14.539,14.539,0,0,1-1.477.893l-.305.169a21.361,21.361,0,0,1-1.918,1,2.315,2.315,0,0,1-2.472-.22,2.14,2.14,0,0,1-.694-1.46,16.608,16.608,0,0,1,0-4.137,2.14,2.14,0,0,1,.694-1.46A2.315,2.315,0,0,1,11.295,8.252Z" transform="translate(-1.25 -2.75)" fill="#919192" fill-rule="evenodd"/>
</svg>
