<svg xmlns="http://www.w3.org/2000/svg" width="20.499" height="20.498" viewBox="0 0 20.499 20.498">
  <g id="rocket-01-solid-rounded" transform="translate(-1.75 -1.75)">
    <path id="Path_4" data-name="Path 4" d="M21.711,2.288a1.79,1.79,0,0,0-1.091-.513,7.542,7.542,0,0,0-1.19,0,9.822,9.822,0,0,0-6.674,2.7L11.271,5.958a6.069,6.069,0,0,1-1.222,1.075,1.4,1.4,0,0,1-.984.037,7.034,7.034,0,0,0-1.63-.27,2.431,2.431,0,0,0-1.794.71,2.624,2.624,0,0,0-.89,1.832,2.624,2.624,0,0,0,.89,1.832l7.183,7.183a2.624,2.624,0,0,0,1.832.89,2.624,2.624,0,0,0,1.832-.89,2.431,2.431,0,0,0,.71-1.794,7.032,7.032,0,0,0-.27-1.63,1.4,1.4,0,0,1,.037-.984,6.065,6.065,0,0,1,1.075-1.222l1.486-1.486a9.822,9.822,0,0,0,2.7-6.674,7.532,7.532,0,0,0,0-1.19A1.79,1.79,0,0,0,21.711,2.288ZM17,6a1,1,0,0,0,0,2h.009a1,1,0,0,0,0-2Z" fill="#fff" fill-rule="evenodd"/>
    <path id="Path_5" data-name="Path 5" d="M5.272,13.026a.95.95,0,0,1,0,1.343l-1.9,1.9a.95.95,0,1,1-1.344-1.344l1.9-1.9A.95.95,0,0,1,5.272,13.026Zm1.507,2.85A.95.95,0,0,1,8.122,17.22l-4.75,4.75a.95.95,0,0,1-1.344-1.344Zm4.194,2.85a.95.95,0,0,1,0,1.344l-1.9,1.9a.95.95,0,0,1-1.343-1.344l1.9-1.9A.95.95,0,0,1,10.972,18.726Z" fill="#fff" fill-rule="evenodd"/>
  </g>
</svg>
