<svg xmlns="http://www.w3.org/2000/svg" width="19.499" height="21.5" viewBox="0 0 19.499 21.5">
  <g id="dress-02-solid-rounded" transform="translate(-2.25 -1.25)">
    <path id="Path_1" data-name="Path 1" d="M9.875,1.351a.75.75,0,0,1,.367.543A3.025,3.025,0,0,0,12,4.2a3.026,3.026,0,0,0,1.758-2.3.75.75,0,0,1,1.021-.59l2.5,1A.75.75,0,0,1,17.53,3.53a1.3,1.3,0,0,0-.454.95,3.489,3.489,0,0,0,.049.611c.01.069.022.146.035.229h0c.029.183.062.392.085.594a3.4,3.4,0,0,1-.524,2.61,4.084,4.084,0,0,1-1.977,1.186.75.75,0,0,1-.244.041h-5a.75.75,0,0,1-.244-.041A4.085,4.085,0,0,1,7.28,8.523a3.4,3.4,0,0,1-.524-2.61c.023-.2.056-.411.085-.594.013-.083.025-.16.035-.229a3.482,3.482,0,0,0,.049-.611,1.3,1.3,0,0,0-.454-.95A.75.75,0,0,1,6.721,2.3l2.5-1A.75.75,0,0,1,9.875,1.351Z" fill="#fff"/>
    <path id="Path_2" data-name="Path 2" d="M9,8.25A.75.75,0,0,1,9.75,9q0,.026,0,.053a6.956,6.956,0,0,1-.579,3.283.75.75,0,0,1-1.342-.671A5.639,5.639,0,0,0,8.25,9,.75.75,0,0,1,9,8.25Zm6,0a.75.75,0,0,1,.75.75,5.639,5.639,0,0,0,.421,2.665.75.75,0,0,1-1.342.671,6.955,6.955,0,0,1-.579-3.283V9A.75.75,0,0,1,15,8.25Z" fill="#fff" fill-rule="evenodd"/>
    <path id="Path_3" data-name="Path 3" d="M9.407,11.25h5.184c.313,0,.6,0,.848.026a1.743,1.743,0,0,1,.822.277,1.766,1.766,0,0,1,.566.679c.116.224.227.507.349.816l.012.031a21.685,21.685,0,0,0,4.229,6.868,1.253,1.253,0,0,1,.264,1.259,1.583,1.583,0,0,1-.716.876l0,0a5.18,5.18,0,0,1-5.019.016,1.938,1.938,0,0,0-1.87,0l-.005,0A4.507,4.507,0,0,1,12,22.75,4.508,4.508,0,0,1,9.93,22.1l0,0a1.938,1.938,0,0,0-1.87,0,5.18,5.18,0,0,1-5.019-.016l0,0a1.584,1.584,0,0,1-.716-.876,1.253,1.253,0,0,1,.264-1.259,21.685,21.685,0,0,0,4.229-6.868l.012-.031c.122-.309.233-.592.349-.816a1.766,1.766,0,0,1,.566-.679,1.744,1.744,0,0,1,.822-.277C8.8,11.25,9.094,11.25,9.407,11.25Z" fill="#fff"/>
  </g>
</svg>
