<svg xmlns="http://www.w3.org/2000/svg" width="21.5" height="21.5" viewBox="0 0 21.5 21.5">
  <g id="laptop-phone-sync-solid-rounded" transform="translate(-1.25 -1.25)">
    <path id="Path_4" data-name="Path 4" d="M17.948,1.25h.1a18.321,18.321,0,0,1,2.242.08,2.724,2.724,0,0,1,1.65.726,2.724,2.724,0,0,1,.726,1.65,18.322,18.322,0,0,1,.08,2.242v2.1a18.322,18.322,0,0,1-.08,2.242,2.724,2.724,0,0,1-.726,1.65,2.724,2.724,0,0,1-1.65.726,18.323,18.323,0,0,1-2.243.08h-.1a18.323,18.323,0,0,1-2.243-.08,2.724,2.724,0,0,1-1.65-.726,2.724,2.724,0,0,1-.726-1.65,18.342,18.342,0,0,1-.08-2.242h0v-2.1h0a18.341,18.341,0,0,1,.08-2.242,2.724,2.724,0,0,1,.726-1.65,2.724,2.724,0,0,1,1.65-.726,18.322,18.322,0,0,1,2.243-.08ZM17,9a1,1,0,0,1,1-1H18a1,1,0,0,1,0,2H18A1,1,0,0,1,17,9Z" fill="#fff" fill-rule="evenodd"/>
    <path id="Path_5" data-name="Path 5" d="M8.184,2.25a18.388,18.388,0,0,0-2.262.082,2.971,2.971,0,0,0-1.794.8,2.971,2.971,0,0,0-.8,1.794A18.388,18.388,0,0,0,3.25,7.184v7.607a.25.25,0,0,1-.03.123l-.01.02-.376.732A15.356,15.356,0,0,0,1.4,18.949a3.178,3.178,0,0,0,.19,2.417A2.673,2.673,0,0,0,3.7,22.617a24.433,24.433,0,0,0,3.389.133h9.826a24.432,24.432,0,0,0,3.389-.133,2.673,2.673,0,0,0,2.111-1.251,3.178,3.178,0,0,0,.19-2.417,15.384,15.384,0,0,0-1.441-3.291L20.8,15c-.017-.031-.025-.046-.03-.059a.239.239,0,0,1-.023-.091c0-.014,0-.042,0-.1a.743.743,0,0,0-.04-.35.3.3,0,0,0-.11-.11.743.743,0,0,0-.35-.04H5.85c-.283,0-.424,0-.512-.088s-.088-.229-.088-.512V7.25a17.573,17.573,0,0,1,.064-2.061c.058-.434.152-.57.229-.646s.212-.17.646-.229A17.573,17.573,0,0,1,8.25,4.25H11a1,1,0,0,0,0-2Z" fill="#fff"/>
  </g>
</svg>
