<svg xmlns="http://www.w3.org/2000/svg" width="21.5" height="18.5" viewBox="0 0 21.5 18.5">
  <g id="house-03-solid-rounded" transform="translate(-1.25 -2.75)">
    <path id="Path_4" data-name="Path 4" d="M4,2.75a1,1,0,0,1,1,1v4.1a1,1,0,1,1-2,0V3.75A1,1,0,0,1,4,2.75Z" fill="#fff" fill-rule="evenodd"/>
    <path id="Path_5" data-name="Path 5" d="M8,17.5a1,1,0,0,0-2,0v3.15c0,.283,0,.424-.088.512s-.229.088-.512.088H3a.75.75,0,0,1-.75-.75V12.886c0-.174,0-.261.044-.316s.143-.076.339-.118a2.168,2.168,0,0,0,1.222-.744L6.978,7.926c.131-.159.2-.238.285-.242s.161.069.307.214l3.518,3.518a4.983,4.983,0,0,0,.493.448c.086.067.129.1.15.142a.455.455,0,0,1,.02.193v8.3a.75.75,0,0,1-.75.75H8.6c-.283,0-.424,0-.512-.088S8,20.933,8,20.65Zm.008-5a1,1,0,0,1-1,1H7a1,1,0,0,1,0-2h.009A1,1,0,0,1,8.008,12.5Z" fill="#fff" fill-rule="evenodd"/>
    <path id="Path_6" data-name="Path 6" d="M13.06,12.549c.06-.059.172-.056.4-.05.095,0,.179,0,.248,0h7.647c.187,0,.281,0,.339.059s.059.152.059.338q0,.154,0,.315V20.5a.75.75,0,0,1-.75.75H13.448c-.25,0-.375,0-.435-.065s-.047-.213-.021-.51Q13,20.589,13,20.5V12.922C13,12.713,13,12.608,13.06,12.549ZM18,16.25a.75.75,0,1,0,0-1.5H16a.75.75,0,1,0,0,1.5Z" fill="#fff" fill-rule="evenodd"/>
    <path id="Path_7" data-name="Path 7" d="M17.23,4.01a4.558,4.558,0,0,0-1.966-.26H6.979l-.073,0-.056,0a.923.923,0,0,0-.743.337L1.465,9.713a.944.944,0,0,0,.119,1.32.922.922,0,0,0,1.308-.12L6.749,6.24c.2-.238.295-.357.427-.363s.242.1.46.321l4.3,4.3a2.558,2.558,0,0,0,.8.615,2.557,2.557,0,0,0,1,.133H22a.75.75,0,0,0,.576-1.23L18.688,5.354A4.558,4.558,0,0,0,17.23,4.01Z" fill="#fff"/>
  </g>
</svg>
