<svg xmlns="http://www.w3.org/2000/svg" width="21.5" height="21.5" viewBox="0 0 21.5 21.5">
  <g id="menu-square-solid-rounded" transform="translate(-1.25 -1.25)">
    <path id="Path_1" data-name="Path 1" d="M5.963,13.25h.073c.739,0,1.347,0,1.838.047a3.154,3.154,0,0,1,1.394.411,3.1,3.1,0,0,1,1.024,1.024,3.154,3.154,0,0,1,.411,1.394c.047.492.047,1.1.047,1.838v.073c0,.739,0,1.347-.047,1.838a3.154,3.154,0,0,1-.411,1.394,3.1,3.1,0,0,1-1.024,1.025,3.154,3.154,0,0,1-1.394.41c-.491.047-1.1.047-1.838.047H5.963c-.739,0-1.347,0-1.838-.047a3.154,3.154,0,0,1-1.394-.41,3.1,3.1,0,0,1-1.024-1.025A3.153,3.153,0,0,1,1.3,19.875c-.047-.492-.047-1.1-.047-1.838v-.073c0-.739,0-1.347.047-1.838a3.153,3.153,0,0,1,.411-1.394,3.1,3.1,0,0,1,1.024-1.024A3.154,3.154,0,0,1,4.125,13.3C4.617,13.25,5.224,13.25,5.963,13.25Z" fill="#fff" fill-rule="evenodd"/>
    <path id="Path_2" data-name="Path 2" d="M17.963,13.25h.073c.739,0,1.347,0,1.838.047a3.154,3.154,0,0,1,1.394.411,3.1,3.1,0,0,1,1.025,1.024,3.154,3.154,0,0,1,.41,1.394c.047.492.047,1.1.047,1.838v.073c0,.739,0,1.347-.047,1.838a3.154,3.154,0,0,1-.41,1.394,3.1,3.1,0,0,1-1.025,1.025,3.154,3.154,0,0,1-1.394.41c-.492.047-1.1.047-1.838.047h-.073c-.739,0-1.347,0-1.838-.047a3.154,3.154,0,0,1-1.394-.41,3.1,3.1,0,0,1-1.024-1.025,3.154,3.154,0,0,1-.411-1.394c-.047-.492-.047-1.1-.047-1.838v-.073c0-.739,0-1.347.047-1.838a3.154,3.154,0,0,1,.411-1.394,3.1,3.1,0,0,1,1.024-1.024,3.154,3.154,0,0,1,1.394-.411C16.617,13.25,17.224,13.25,17.963,13.25Z" fill="#fff" fill-rule="evenodd"/>
    <path id="Path_3" data-name="Path 3" d="M5.963,1.25h.073c.739,0,1.347,0,1.838.047a3.153,3.153,0,0,1,1.394.411,3.1,3.1,0,0,1,1.024,1.024A3.154,3.154,0,0,1,10.7,4.125c.047.491.047,1.1.047,1.838v.073c0,.739,0,1.347-.047,1.838a3.154,3.154,0,0,1-.411,1.394,3.1,3.1,0,0,1-1.024,1.024,3.154,3.154,0,0,1-1.394.411c-.491.047-1.1.047-1.838.047H5.963c-.739,0-1.347,0-1.838-.047a3.154,3.154,0,0,1-1.394-.411A3.1,3.1,0,0,1,1.707,9.268,3.153,3.153,0,0,1,1.3,7.875c-.047-.491-.047-1.1-.047-1.838V5.963c0-.739,0-1.347.047-1.838a3.153,3.153,0,0,1,.411-1.394A3.1,3.1,0,0,1,2.732,1.707,3.153,3.153,0,0,1,4.125,1.3C4.617,1.25,5.224,1.25,5.963,1.25Z" fill="#fff" fill-rule="evenodd"/>
    <path id="Path_4" data-name="Path 4" d="M17.963,1.25h.073c.739,0,1.347,0,1.838.047a3.153,3.153,0,0,1,1.394.411,3.1,3.1,0,0,1,1.025,1.024,3.154,3.154,0,0,1,.41,1.394c.047.491.047,1.1.047,1.838v.073c0,.739,0,1.347-.047,1.838a3.154,3.154,0,0,1-.41,1.394,3.1,3.1,0,0,1-1.025,1.024,3.154,3.154,0,0,1-1.394.411c-.492.047-1.1.047-1.838.047h-.073c-.739,0-1.347,0-1.838-.047a3.154,3.154,0,0,1-1.394-.411,3.1,3.1,0,0,1-1.024-1.024A3.154,3.154,0,0,1,13.3,7.875c-.047-.491-.047-1.1-.047-1.838V5.963c0-.739,0-1.347.047-1.838a3.154,3.154,0,0,1,.411-1.394,3.1,3.1,0,0,1,1.024-1.024A3.153,3.153,0,0,1,16.125,1.3C16.617,1.25,17.224,1.25,17.963,1.25Z" fill="#fff" fill-rule="evenodd"/>
  </g>
</svg>
