<svg xmlns="http://www.w3.org/2000/svg" width="19.501" height="21.5" viewBox="0 0 19.501 21.5">
  <path id="high-heels-01-solid-rounded" d="M8.418,1.321h0a.967.967,0,0,0-.182-.055.933.933,0,0,0-.272-.01l-.02,0H7.932a.75.75,0,0,0-.257.068.748.748,0,0,0-.073.039l-.017.011,0,0h0a.859.859,0,0,0-.335.431,1.163,1.163,0,0,0-.057.26c-.006.054-.009.088-.012.113h0a.645.645,0,0,1-.013.092A6.078,6.078,0,0,1,6.7,3.67a2.232,2.232,0,0,1-.89,1.035A7.482,7.482,0,0,0,3.531,6.572,5.472,5.472,0,0,0,2.27,9.27a2.366,2.366,0,0,0,.646,1.93,5.96,5.96,0,0,0,1.331,1.027c2.322,1.423,3.582,3.822,4.672,6.044l.14.286h0a18.905,18.905,0,0,0,1.474,2.665,3.077,3.077,0,0,0,2.45,1.5h0l.059,0,.22.008c.189.006.459.013.786.017.653.009,1.537.005,2.456-.041a18.138,18.138,0,0,0,2.71-.311,5.982,5.982,0,0,0,1.149-.349,2.2,2.2,0,0,0,.919-.683,1.88,1.88,0,0,0,.279-2.031,2.853,2.853,0,0,0-1.346-1.154,11.627,11.627,0,0,0-1.562-.581l-.131-.041a7.069,7.069,0,0,1-.89-.309,3.77,3.77,0,0,1-1.748-2.731,13.321,13.321,0,0,1,.2-5.474,13.892,13.892,0,0,0,.229-5.465.8.8,0,0,0-.514-.591,1.18,1.18,0,0,0-.26-.059c-.112-.014-.258-.021-.4-.028h-.025c-.314-.015-.759-.037-1.349-.11A21.429,21.429,0,0,1,8.418,1.321ZM6.145,11.745a6.72,6.72,0,0,0,1.581-1.073c.653-.661.041-1.239-.785-2.018A8.248,8.248,0,0,1,5.365,6.826a6.135,6.135,0,0,0-.674.7,3.99,3.99,0,0,0-.933,1.937.873.873,0,0,0,.273.734,4.564,4.564,0,0,0,1,.752A9.676,9.676,0,0,1,6.145,11.745ZM7.938,4.537q.056-.1.105-.2a7.184,7.184,0,0,0,.494-1.357,22.187,22.187,0,0,0,5.047,1.3c.57.071,1.019.1,1.338.114a10.727,10.727,0,0,1,.053,1.591A15.571,15.571,0,0,1,7.938,4.537Zm9.224,14.141A3.562,3.562,0,0,0,16,21.225c.142-.005.286-.011.43-.019a16.692,16.692,0,0,0,2.476-.28,4.534,4.534,0,0,0,.856-.255.842.842,0,0,0,.307-.189c.24-.331.174-.44.162-.459v0a1.483,1.483,0,0,0-.666-.492,10.239,10.239,0,0,0-1.357-.5l-.158-.049C17.748,18.886,17.423,18.785,17.162,18.677Z" transform="translate(-2.25 -1.25)" fill="#fff" fill-rule="evenodd"/>
</svg>
