<svg xmlns="http://www.w3.org/2000/svg" width="12.5" height="21.5" viewBox="0 0 12.5 21.5">
  <g id="body-soap-solid-rounded_1_" data-name="body-soap-solid-rounded (1)" transform="translate(-3.75 -1.25)">
    <path id="Path_1" data-name="Path 1" d="M9.5,7.25A5.75,5.75,0,0,0,3.75,13v5.052a18.324,18.324,0,0,0,.08,2.243,2.724,2.724,0,0,0,.726,1.65,2.724,2.724,0,0,0,1.65.726,18.322,18.322,0,0,0,2.242.08h2.1a18.323,18.323,0,0,0,2.243-.08,2.724,2.724,0,0,0,1.65-.726,2.724,2.724,0,0,0,.726-1.65,18.323,18.323,0,0,0,.08-2.243h0V13A5.75,5.75,0,0,0,9.5,7.25ZM5.25,13a4.251,4.251,0,0,1,8.408-.886c.036.168.053.252,0,.29s-.133,0-.3-.083c-1.478-.72-2.714-.1-4.069.584A7.314,7.314,0,0,1,5.43,13.989c-.084-.006-.126-.008-.153-.037s-.027-.072-.027-.159Z" fill="#fff" fill-rule="evenodd"/>
    <path id="Path_2" data-name="Path 2" d="M9.455,4.25A9.286,9.286,0,0,0,8.3,4.293a1.733,1.733,0,0,0-1.04.469A1.733,1.733,0,0,0,6.793,5.8,9.286,9.286,0,0,0,6.75,6.955V8a.75.75,0,0,0,.75.75h4A.75.75,0,0,0,12.25,8V6.955A9.277,9.277,0,0,0,12.207,5.8a1.733,1.733,0,0,0-.469-1.04,1.733,1.733,0,0,0-1.04-.469A9.286,9.286,0,0,0,9.545,4.25Z" fill="#fff"/>
    <path id="Path_3" data-name="Path 3" d="M6.75,2a.75.75,0,0,1,.75-.75h5.423a4.759,4.759,0,0,1,3.05,1.168.75.75,0,1,1-.946,1.164,3.268,3.268,0,0,0-2.1-.832H10.25V5a.75.75,0,0,1-1.5,0V2.75H7.5A.75.75,0,0,1,6.75,2Z" fill="#fff" fill-rule="evenodd"/>
  </g>
</svg>
